<svg width="400" height="300" viewBox="0 0 400 300" xmlns="http://www.w3.org/2000/svg">
  <defs>
    <linearGradient id="bgGradient" x1="0%" y1="0%" x2="100%" y2="100%">
      <stop offset="0%" style="stop-color:#1a1a1a;stop-opacity:1" />
      <stop offset="100%" style="stop-color:#0a0a0a;stop-opacity:1" />
    </linearGradient>
    <linearGradient id="redGradient" x1="0%" y1="0%" x2="100%" y2="100%">
      <stop offset="0%" style="stop-color:#e50914;stop-opacity:1" />
      <stop offset="100%" style="stop-color:#b81d13;stop-opacity:1" />
    </linearGradient>
    <filter id="glow">
      <feGaussianBlur stdDeviation="3" result="coloredBlur"/>
      <feMerge> 
        <feMergeNode in="coloredBlur"/>
        <feMergeNode in="SourceGraphic"/>
      </feMerge>
    </filter>
  </defs>
  
  <!-- Background -->
  <rect width="400" height="300" fill="url(#bgGradient)"/>
  
  <!-- Main circle -->
  <circle cx="200" cy="150" r="80" fill="url(#redGradient)" filter="url(#glow)"/>
  
  <!-- Play button -->
  <polygon points="180,130 180,170 220,150" fill="white" opacity="0.9"/>
  
  <!-- People icons around the circle -->
  <g transform="translate(120, 80)">
    <circle cx="0" cy="0" r="15" fill="url(#redGradient)" opacity="0.8"/>
    <circle cx="0" cy="-8" r="6" fill="white"/>
    <ellipse cx="0" cy="5" rx="8" ry="6" fill="white"/>
  </g>
  
  <g transform="translate(280, 80)">
    <circle cx="0" cy="0" r="15" fill="url(#redGradient)" opacity="0.8"/>
    <circle cx="0" cy="-8" r="6" fill="white"/>
    <ellipse cx="0" cy="5" rx="8" ry="6" fill="white"/>
  </g>
  
  <g transform="translate(120, 220)">
    <circle cx="0" cy="0" r="15" fill="url(#redGradient)" opacity="0.8"/>
    <circle cx="0" cy="-8" r="6" fill="white"/>
    <ellipse cx="0" cy="5" rx="8" ry="6" fill="white"/>
  </g>
  
  <g transform="translate(280, 220)">
    <circle cx="0" cy="0" r="15" fill="url(#redGradient)" opacity="0.8"/>
    <circle cx="0" cy="-8" r="6" fill="white"/>
    <ellipse cx="0" cy="5" rx="8" ry="6" fill="white"/>
  </g>
  
  <!-- Connection lines -->
  <line x1="135" y1="95" x2="185" y2="135" stroke="url(#redGradient)" stroke-width="2" opacity="0.6"/>
  <line x1="265" y1="95" x2="215" y2="135" stroke="url(#redGradient)" stroke-width="2" opacity="0.6"/>
  <line x1="135" y1="205" x2="185" y2="165" stroke="url(#redGradient)" stroke-width="2" opacity="0.6"/>
  <line x1="265" y1="205" x2="215" y2="165" stroke="url(#redGradient)" stroke-width="2" opacity="0.6"/>
</svg>
